G04*
G04 #@! TF.GenerationSoftware,Altium Limited,Altium Designer,21.5.1 (32)*
G04*
G04 Layer_Color=8421504*
%FSTAX25Y25*%
%MOIN*%
G70*
G04*
G04 #@! TF.SameCoordinates,0BFE2CC6-8836-44AC-A470-928A03FDA669*
G04*
G04*
G04 #@! TF.FilePolarity,Positive*
G04*
G01*
G75*
%ADD15R,0.06811X0.03819*%
%ADD16R,0.05906X0.03543*%
%ADD17R,0.07165X0.04567*%
D15*
X02395Y03625D02*
D03*
Y0374154D02*
D03*
X02535Y0362346D02*
D03*
Y0374D02*
D03*
X0226Y03625D02*
D03*
Y0374154D02*
D03*
D16*
X0306661Y0115804D02*
D03*
Y0128796D02*
D03*
X0287369Y0115804D02*
D03*
Y0128796D02*
D03*
X0211769D02*
D03*
Y0115804D02*
D03*
X0231061Y0128796D02*
D03*
Y0115804D02*
D03*
X0155461D02*
D03*
Y0128796D02*
D03*
X0136169Y0115804D02*
D03*
Y0128796D02*
D03*
X0287369Y0204396D02*
D03*
Y0191404D02*
D03*
X0306661Y0204396D02*
D03*
Y0191404D02*
D03*
X0231061D02*
D03*
Y0204396D02*
D03*
X0211769Y0191404D02*
D03*
Y0204396D02*
D03*
X0136169D02*
D03*
Y0191404D02*
D03*
X0155461Y0204396D02*
D03*
Y0191404D02*
D03*
X0306661Y0267004D02*
D03*
Y0279996D02*
D03*
X0287369Y0267004D02*
D03*
Y0279996D02*
D03*
X0211769D02*
D03*
Y0267004D02*
D03*
X0231061Y0279996D02*
D03*
Y0267004D02*
D03*
X0155461D02*
D03*
Y0279996D02*
D03*
X0136169Y0267004D02*
D03*
Y0279996D02*
D03*
D17*
X03345Y0116316D02*
D03*
Y012793D02*
D03*
X02595Y0116316D02*
D03*
Y012793D02*
D03*
X01835Y0116316D02*
D03*
Y012793D02*
D03*
X03345Y0191916D02*
D03*
Y020353D02*
D03*
X02595Y0191916D02*
D03*
Y020353D02*
D03*
X01835Y0191916D02*
D03*
Y020353D02*
D03*
X03345Y0267516D02*
D03*
Y027913D02*
D03*
X02595Y0267516D02*
D03*
Y027913D02*
D03*
X01835Y0267516D02*
D03*
Y027913D02*
D03*
M02*
