G04*
G04 #@! TF.GenerationSoftware,Altium Limited,Altium Designer,21.5.1 (32)*
G04*
G04 Layer_Color=8388736*
%FSTAX25Y25*%
%MOIN*%
G70*
G04*
G04 #@! TF.SameCoordinates,0BFE2CC6-8836-44AC-A470-928A03FDA669*
G04*
G04*
G04 #@! TF.FilePolarity,Negative*
G04*
G01*
G75*
%ADD18R,0.07611X0.04619*%
%ADD19R,0.06706X0.04343*%
%ADD20R,0.07965X0.05367*%
%ADD21C,0.09800*%
%ADD22C,0.08274*%
%ADD23R,0.07296X0.07296*%
%ADD24C,0.07296*%
%ADD25O,0.24422X0.12611*%
%ADD26C,0.09658*%
%ADD27C,0.16500*%
%ADD28C,0.06706*%
%ADD29R,0.06706X0.06706*%
%ADD30C,0.06000*%
%ADD31C,0.05800*%
D18*
X02395Y03625D02*
D03*
Y0374154D02*
D03*
X02535Y0362346D02*
D03*
Y0374D02*
D03*
X0226Y03625D02*
D03*
Y0374154D02*
D03*
D19*
X0306661Y0115804D02*
D03*
Y0128796D02*
D03*
X0287369Y0115804D02*
D03*
Y0128796D02*
D03*
X0211769D02*
D03*
Y0115804D02*
D03*
X0231061Y0128796D02*
D03*
Y0115804D02*
D03*
X0155461D02*
D03*
Y0128796D02*
D03*
X0136169Y0115804D02*
D03*
Y0128796D02*
D03*
X0287369Y0204396D02*
D03*
Y0191404D02*
D03*
X0306661Y0204396D02*
D03*
Y0191404D02*
D03*
X0231061D02*
D03*
Y0204396D02*
D03*
X0211769Y0191404D02*
D03*
Y0204396D02*
D03*
X0136169D02*
D03*
Y0191404D02*
D03*
X0155461Y0204396D02*
D03*
Y0191404D02*
D03*
X0306661Y0267004D02*
D03*
Y0279996D02*
D03*
X0287369Y0267004D02*
D03*
Y0279996D02*
D03*
X0211769D02*
D03*
Y0267004D02*
D03*
X0231061Y0279996D02*
D03*
Y0267004D02*
D03*
X0155461D02*
D03*
Y0279996D02*
D03*
X0136169Y0267004D02*
D03*
Y0279996D02*
D03*
D20*
X03345Y0116316D02*
D03*
Y012793D02*
D03*
X02595Y0116316D02*
D03*
Y012793D02*
D03*
X01835Y0116316D02*
D03*
Y012793D02*
D03*
X03345Y0191916D02*
D03*
Y020353D02*
D03*
X02595Y0191916D02*
D03*
Y020353D02*
D03*
X01835Y0191916D02*
D03*
Y020353D02*
D03*
X03345Y0267516D02*
D03*
Y027913D02*
D03*
X02595Y0267516D02*
D03*
Y027913D02*
D03*
X01835Y0267516D02*
D03*
Y027913D02*
D03*
D21*
X0320279Y0107267D02*
D03*
X0334278Y0487D02*
D03*
X0215692Y0352721D02*
D03*
X0125778D02*
D03*
X0109Y0107267D02*
D03*
D22*
X012Y04115D02*
D03*
X013D02*
D03*
X014D02*
D03*
X015D02*
D03*
X016D02*
D03*
X017D02*
D03*
X018D02*
D03*
X019D02*
D03*
X02D02*
D03*
X021D02*
D03*
X022D02*
D03*
X023D02*
D03*
X024D02*
D03*
X025D02*
D03*
X026D02*
D03*
X027D02*
D03*
X028D02*
D03*
X029D02*
D03*
X03D02*
D03*
X031D02*
D03*
X012Y04715D02*
D03*
X013D02*
D03*
X014D02*
D03*
X015D02*
D03*
X016D02*
D03*
X017D02*
D03*
X018D02*
D03*
X019D02*
D03*
X02D02*
D03*
X021D02*
D03*
X022D02*
D03*
X023D02*
D03*
X024D02*
D03*
X025D02*
D03*
X026D02*
D03*
X027D02*
D03*
X028D02*
D03*
X029D02*
D03*
X03D02*
D03*
X031D02*
D03*
D23*
X0325559Y0373343D02*
D03*
D24*
Y0353657D02*
D03*
X0268472Y0373343D02*
D03*
Y03635D02*
D03*
Y0353657D02*
D03*
D25*
X0298Y0385941D02*
D03*
Y0341059D02*
D03*
D26*
X0282015Y01563D02*
D03*
X0306897Y01663D02*
D03*
X0231297D02*
D03*
X0206415Y01563D02*
D03*
X0130815D02*
D03*
X0155697Y01663D02*
D03*
X0306897Y02419D02*
D03*
X0282015Y02319D02*
D03*
X0206415D02*
D03*
X0231297Y02419D02*
D03*
X0155697D02*
D03*
X0130815Y02319D02*
D03*
X0282015Y03075D02*
D03*
X0306897Y03175D02*
D03*
X0231297D02*
D03*
X0206415Y03075D02*
D03*
X0130815D02*
D03*
X0155697Y03175D02*
D03*
D27*
X0297015Y01463D02*
D03*
X0221415D02*
D03*
X0145815D02*
D03*
X0297015Y02219D02*
D03*
X0221415D02*
D03*
X0145815D02*
D03*
X0297015Y02975D02*
D03*
X0221415D02*
D03*
X0145815D02*
D03*
D28*
X014Y03885D02*
D03*
X015D02*
D03*
X016D02*
D03*
X017D02*
D03*
X019D02*
D03*
X018D02*
D03*
D29*
X02D02*
D03*
D30*
X02345Y03435D02*
D03*
X02445D02*
D03*
D31*
X02132Y02122D02*
D03*
X02625Y0429D02*
D03*
X01757Y04572D02*
D03*
X01362Y01969D02*
D03*
X029875Y028405D02*
D03*
X01657Y02015D02*
D03*
X02013Y0184704D02*
D03*
X0145961Y01205D02*
D03*
X02996Y0202D02*
D03*
X025Y0391815D02*
D03*
X02184Y02702D02*
D03*
X01543Y02754D02*
D03*
M02*
