M48
;Layer_Color=9474304
;FILE_FORMAT=2:5
INCH,LZ
;TYPE=PLATED
T1F00S00C0.02800
T2F00S00C0.03200
T3F00S00C0.03540
T4F00S00C0.03543
T5F00S00C0.04331
T6F00S00C0.05906
T8F00S00C0.08300
;TYPE=NON_PLATED
T9F00S00C0.15700
%
T01
X0145961Y01205
X01657Y02015
X02013Y0184704
X02132Y02122
X02184Y02702
X029875Y028405
X02996Y0202
X01362Y01969
X01543Y02754
X01757Y04572
X02625Y0429
X025Y0391815
T02
X02345Y03435
X02445
T03
X012Y04115
X013
X014
X015
X016
X017
X018
X019
X02
X021
X022
X023
X024
X025
X026
X027
X028
X029
X03
X031
Y04715
X03
X029
X028
X027
X026
X025
X024
X023
X022
X021
X02
X019
X018
X017
X016
X015
X014
X013
X012
T04
X014Y03885
X015
X016
X017
X018
X019
X02
T05
X0268472Y0353657
Y03635
Y0373343
X0325559
Y0353657
T06
X0206415Y01563
X0231297Y01663
X0282015Y01563
X0306897Y01663
Y02419
X0282015Y02319
X0231297Y02419
X0206415Y02319
Y03075
X0282015
X0130815
Y02319
X0155697Y02419
Y01663
X0130815Y01563
X0155697Y03175
X0231297
X0306897
T08
X0109Y0107267
X0320279
X0125778Y0352721
X0215692
X0334278Y0487
T09
X0145815Y01463
X0221415
X0297015
Y02219
X0221415
Y02975
X0297015
X0145815
Y02219
M30
