G04*
G04 #@! TF.GenerationSoftware,Altium Limited,Altium Designer,21.5.1 (32)*
G04*
G04 Layer_Color=2752767*
%FSTAX25Y25*%
%MOIN*%
G70*
G04*
G04 #@! TF.SameCoordinates,0BFE2CC6-8836-44AC-A470-928A03FDA669*
G04*
G04*
G04 #@! TF.FilePolarity,Positive*
G04*
G01*
G75*
%ADD44C,0.00200*%
%ADD45C,0.00267*%
D44*
X0319479Y0106467D02*
Y0108068D01*
X0321078D01*
Y0106467D01*
X0319479D01*
X0333478Y04862D02*
Y04878D01*
X0335079D01*
Y04862D01*
X0333478D01*
X0214892Y0351921D02*
Y0353521D01*
X0216492D01*
Y0351921D01*
X0214892D01*
X0124978D02*
Y0353521D01*
X0126578D01*
Y0351921D01*
X0124978D01*
X01082Y0106467D02*
Y0108068D01*
X01098D01*
Y0106467D01*
X01082D01*
X0325559Y0372543D02*
X0324759Y0374143D01*
X0326359D01*
X0325559Y0372543D01*
Y0352857D02*
X0324759Y0354457D01*
X0326359D01*
X0325559Y0352857D01*
X0268472Y0372543D02*
X0267672Y0374143D01*
X0269272D01*
X0268472Y0372543D01*
Y03627D02*
X0267672Y03643D01*
X0269272D01*
X0268472Y03627D01*
Y0352857D02*
X0267672Y0354457D01*
X0269272D01*
X0268472Y0352857D01*
X0298Y0385141D02*
X02984Y0385541D01*
X02988D01*
X02984Y0385941D01*
X02988Y0386341D01*
X02984D01*
X0298Y0386741D01*
X02976Y0386341D01*
X02972D01*
X02976Y0385941D01*
X02972Y0385541D01*
X02976D01*
X0298Y0385141D01*
Y0340259D02*
X02984Y0340659D01*
X02988D01*
X02984Y0341059D01*
X02988Y0341459D01*
X02984D01*
X0298Y0341859D01*
X02976Y0341459D01*
X02972D01*
X02976Y0341059D01*
X02972Y0340659D01*
X02976D01*
X0298Y0340259D01*
X0281215Y01555D02*
X0281615Y01563D01*
X0281215Y01571D01*
X0282015Y01567D01*
X0282815Y01571D01*
X0282415Y01563D01*
X0282815Y01555D01*
X0282015Y01559D01*
X0281215Y01555D01*
X0306097Y01655D02*
X0306497Y01663D01*
X0306097Y01671D01*
X0306897Y01667D01*
X0307697Y01671D01*
X0307297Y01663D01*
X0307697Y01655D01*
X0306897Y01659D01*
X0306097Y01655D01*
X0296615Y01459D02*
Y01455D01*
X0297415D01*
Y01459D01*
X0297815D01*
Y01467D01*
X0297415D01*
Y01471D01*
X0296615D01*
Y01467D01*
X0296215D01*
Y01459D01*
X0296615D01*
X0221015D02*
Y01455D01*
X0221815D01*
Y01459D01*
X0222215D01*
Y01467D01*
X0221815D01*
Y01471D01*
X0221015D01*
Y01467D01*
X0220615D01*
Y01459D01*
X0221015D01*
X0230497Y01655D02*
X0230897Y01663D01*
X0230497Y01671D01*
X0231297Y01667D01*
X0232097Y01671D01*
X0231697Y01663D01*
X0232097Y01655D01*
X0231297Y01659D01*
X0230497Y01655D01*
X0205615Y01555D02*
X0206015Y01563D01*
X0205615Y01571D01*
X0206415Y01567D01*
X0207215Y01571D01*
X0206815Y01563D01*
X0207215Y01555D01*
X0206415Y01559D01*
X0205615Y01555D01*
X0130015D02*
X0130415Y01563D01*
X0130015Y01571D01*
X0130815Y01567D01*
X0131615Y01571D01*
X0131215Y01563D01*
X0131615Y01555D01*
X0130815Y01559D01*
X0130015Y01555D01*
X0154897Y01655D02*
X0155297Y01663D01*
X0154897Y01671D01*
X0155697Y01667D01*
X0156497Y01671D01*
X0156097Y01663D01*
X0156497Y01655D01*
X0155697Y01659D01*
X0154897Y01655D01*
X0145415Y01459D02*
Y01455D01*
X0146215D01*
Y01459D01*
X0146615D01*
Y01467D01*
X0146215D01*
Y01471D01*
X0145415D01*
Y01467D01*
X0145015D01*
Y01459D01*
X0145415D01*
X0296615Y02215D02*
Y02211D01*
X0297415D01*
Y02215D01*
X0297815D01*
Y02223D01*
X0297415D01*
Y02227D01*
X0296615D01*
Y02223D01*
X0296215D01*
Y02215D01*
X0296615D01*
X0306097Y02411D02*
X0306497Y02419D01*
X0306097Y02427D01*
X0306897Y02423D01*
X0307697Y02427D01*
X0307297Y02419D01*
X0307697Y02411D01*
X0306897Y02415D01*
X0306097Y02411D01*
X0281215Y02311D02*
X0281615Y02319D01*
X0281215Y02327D01*
X0282015Y02323D01*
X0282815Y02327D01*
X0282415Y02319D01*
X0282815Y02311D01*
X0282015Y02315D01*
X0281215Y02311D01*
X0205615D02*
X0206015Y02319D01*
X0205615Y02327D01*
X0206415Y02323D01*
X0207215Y02327D01*
X0206815Y02319D01*
X0207215Y02311D01*
X0206415Y02315D01*
X0205615Y02311D01*
X0230497Y02411D02*
X0230897Y02419D01*
X0230497Y02427D01*
X0231297Y02423D01*
X0232097Y02427D01*
X0231697Y02419D01*
X0232097Y02411D01*
X0231297Y02415D01*
X0230497Y02411D01*
X0221015Y02215D02*
Y02211D01*
X0221815D01*
Y02215D01*
X0222215D01*
Y02223D01*
X0221815D01*
Y02227D01*
X0221015D01*
Y02223D01*
X0220615D01*
Y02215D01*
X0221015D01*
X0145415D02*
Y02211D01*
X0146215D01*
Y02215D01*
X0146615D01*
Y02223D01*
X0146215D01*
Y02227D01*
X0145415D01*
Y02223D01*
X0145015D01*
Y02215D01*
X0145415D01*
X0154897Y02411D02*
X0155297Y02419D01*
X0154897Y02427D01*
X0155697Y02423D01*
X0156497Y02427D01*
X0156097Y02419D01*
X0156497Y02411D01*
X0155697Y02415D01*
X0154897Y02411D01*
X0130015Y02311D02*
X0130415Y02319D01*
X0130015Y02327D01*
X0130815Y02323D01*
X0131615Y02327D01*
X0131215Y02319D01*
X0131615Y02311D01*
X0130815Y02315D01*
X0130015Y02311D01*
X0281215Y03067D02*
X0281615Y03075D01*
X0281215Y03083D01*
X0282015Y03079D01*
X0282815Y03083D01*
X0282415Y03075D01*
X0282815Y03067D01*
X0282015Y03071D01*
X0281215Y03067D01*
X0306097Y03167D02*
X0306497Y03175D01*
X0306097Y03183D01*
X0306897Y03179D01*
X0307697Y03183D01*
X0307297Y03175D01*
X0307697Y03167D01*
X0306897Y03171D01*
X0306097Y03167D01*
X0296615Y02971D02*
Y02967D01*
X0297415D01*
Y02971D01*
X0297815D01*
Y02979D01*
X0297415D01*
Y02983D01*
X0296615D01*
Y02979D01*
X0296215D01*
Y02971D01*
X0296615D01*
X0221015D02*
Y02967D01*
X0221815D01*
Y02971D01*
X0222215D01*
Y02979D01*
X0221815D01*
Y02983D01*
X0221015D01*
Y02979D01*
X0220615D01*
Y02971D01*
X0221015D01*
X0230497Y03167D02*
X0230897Y03175D01*
X0230497Y03183D01*
X0231297Y03179D01*
X0232097Y03183D01*
X0231697Y03175D01*
X0232097Y03167D01*
X0231297Y03171D01*
X0230497Y03167D01*
X0205615Y03067D02*
X0206015Y03075D01*
X0205615Y03083D01*
X0206415Y03079D01*
X0207215Y03083D01*
X0206815Y03075D01*
X0207215Y03067D01*
X0206415Y03071D01*
X0205615Y03067D01*
X0130015D02*
X0130415Y03075D01*
X0130015Y03083D01*
X0130815Y03079D01*
X0131615Y03083D01*
X0131215Y03075D01*
X0131615Y03067D01*
X0130815Y03071D01*
X0130015Y03067D01*
X0154897Y03167D02*
X0155297Y03175D01*
X0154897Y03183D01*
X0155697Y03179D01*
X0156497Y03183D01*
X0156097Y03175D01*
X0156497Y03167D01*
X0155697Y03171D01*
X0154897Y03167D01*
X0145415Y02971D02*
Y02967D01*
X0146215D01*
Y02971D01*
X0146615D01*
Y02979D01*
X0146215D01*
Y02983D01*
X0145415D01*
Y02979D01*
X0145015D01*
Y02971D01*
X0145415D01*
X01392Y03877D02*
X01396D01*
X014Y03881D01*
X01404Y03877D01*
X01408D01*
Y03881D01*
X01404Y03885D01*
X01408Y03889D01*
Y03893D01*
X01404D01*
X014Y03889D01*
X01396Y03893D01*
X01392D01*
Y03889D01*
X01396Y03885D01*
X01392Y03881D01*
Y03877D01*
X01492D02*
X01496D01*
X015Y03881D01*
X01504Y03877D01*
X01508D01*
Y03881D01*
X01504Y03885D01*
X01508Y03889D01*
Y03893D01*
X01504D01*
X015Y03889D01*
X01496Y03893D01*
X01492D01*
Y03889D01*
X01496Y03885D01*
X01492Y03881D01*
Y03877D01*
X01592D02*
X01596D01*
X016Y03881D01*
X01604Y03877D01*
X01608D01*
Y03881D01*
X01604Y03885D01*
X01608Y03889D01*
Y03893D01*
X01604D01*
X016Y03889D01*
X01596Y03893D01*
X01592D01*
Y03889D01*
X01596Y03885D01*
X01592Y03881D01*
Y03877D01*
X01692D02*
X01696D01*
X017Y03881D01*
X01704Y03877D01*
X01708D01*
Y03881D01*
X01704Y03885D01*
X01708Y03889D01*
Y03893D01*
X01704D01*
X017Y03889D01*
X01696Y03893D01*
X01692D01*
Y03889D01*
X01696Y03885D01*
X01692Y03881D01*
Y03877D01*
X01892D02*
X01896D01*
X019Y03881D01*
X01904Y03877D01*
X01908D01*
Y03881D01*
X01904Y03885D01*
X01908Y03889D01*
Y03893D01*
X01904D01*
X019Y03889D01*
X01896Y03893D01*
X01892D01*
Y03889D01*
X01896Y03885D01*
X01892Y03881D01*
Y03877D01*
X01992D02*
X01996D01*
X02Y03881D01*
X02004Y03877D01*
X02008D01*
Y03881D01*
X02004Y03885D01*
X02008Y03889D01*
Y03893D01*
X02004D01*
X02Y03889D01*
X01996Y03893D01*
X01992D01*
Y03889D01*
X01996Y03885D01*
X01992Y03881D01*
Y03877D01*
X01792D02*
X01796D01*
X018Y03881D01*
X01804Y03877D01*
X01808D01*
Y03881D01*
X01804Y03885D01*
X01808Y03889D01*
Y03893D01*
X01804D01*
X018Y03889D01*
X01796Y03893D01*
X01792D01*
Y03889D01*
X01796Y03885D01*
X01792Y03881D01*
Y03877D01*
X02337Y03435D02*
X02345Y03443D01*
X02353Y03435D01*
X02345Y03427D01*
X02337Y03435D01*
X02437D02*
X02445Y03443D01*
X02453Y03435D01*
X02445Y03427D01*
X02437Y03435D01*
X02124Y02114D02*
Y0213D01*
X0214D01*
Y02114D01*
X02124D01*
X02128Y02118D02*
Y02126D01*
X02136D01*
Y02118D01*
X02128D01*
X02617Y04282D02*
Y04298D01*
X02633D01*
Y04282D01*
X02617D01*
X02621Y04286D02*
Y04294D01*
X02629D01*
Y04286D01*
X02621D01*
X01749Y04564D02*
Y0458D01*
X01765D01*
Y04564D01*
X01749D01*
X01753Y04568D02*
Y04576D01*
X01761D01*
Y04568D01*
X01753D01*
X01354Y01961D02*
Y01977D01*
X0137D01*
Y01961D01*
X01354D01*
X01358Y01965D02*
Y01973D01*
X01366D01*
Y01965D01*
X01358D01*
X029795Y028325D02*
Y028485D01*
X029955D01*
Y028325D01*
X029795D01*
X029835Y028365D02*
Y028445D01*
X029915D01*
Y028365D01*
X029835D01*
X01649Y02007D02*
Y02023D01*
X01665D01*
Y02007D01*
X01649D01*
X01653Y02011D02*
Y02019D01*
X01661D01*
Y02011D01*
X01653D01*
X02005Y0183904D02*
Y0185504D01*
X02021D01*
Y0183904D01*
X02005D01*
X02009Y0184304D02*
Y0185104D01*
X02017D01*
Y0184304D01*
X02009D01*
X0145161Y01197D02*
Y01213D01*
X0146761D01*
Y01197D01*
X0145161D01*
X0145561Y01201D02*
Y01209D01*
X0146361D01*
Y01201D01*
X0145561D01*
X02988Y02012D02*
Y02028D01*
X03004D01*
Y02012D01*
X02988D01*
X02992Y02016D02*
Y02024D01*
X03D01*
Y02016D01*
X02992D01*
X02492Y0391015D02*
Y0392615D01*
X02508D01*
Y0391015D01*
X02492D01*
X02496Y0391415D02*
Y0392215D01*
X02504D01*
Y0391415D01*
X02496D01*
X02176Y02694D02*
Y0271D01*
X02192D01*
Y02694D01*
X02176D01*
X0218Y02698D02*
Y02706D01*
X02188D01*
Y02698D01*
X0218D01*
X01535Y02746D02*
Y02762D01*
X01551D01*
Y02746D01*
X01535D01*
X01539Y0275D02*
Y02758D01*
X01547D01*
Y0275D01*
X01539D01*
D45*
X01208Y04115D02*
G03*
X01208Y04115I-00008J0D01*
G01*
X01308D02*
G03*
X01308Y04115I-00008J0D01*
G01*
X01408D02*
G03*
X01408Y04115I-00008J0D01*
G01*
X01508D02*
G03*
X01508Y04115I-00008J0D01*
G01*
X01608D02*
G03*
X01608Y04115I-00008J0D01*
G01*
X01708D02*
G03*
X01708Y04115I-00008J0D01*
G01*
X01808D02*
G03*
X01808Y04115I-00008J0D01*
G01*
X01908D02*
G03*
X01908Y04115I-00008J0D01*
G01*
X02008D02*
G03*
X02008Y04115I-00008J0D01*
G01*
X02108D02*
G03*
X02108Y04115I-00008J0D01*
G01*
X02208D02*
G03*
X02208Y04115I-00008J0D01*
G01*
X02308D02*
G03*
X02308Y04115I-00008J0D01*
G01*
X02408D02*
G03*
X02408Y04115I-00008J0D01*
G01*
X02508D02*
G03*
X02508Y04115I-00008J0D01*
G01*
X02608D02*
G03*
X02608Y04115I-00008J0D01*
G01*
X02708D02*
G03*
X02708Y04115I-00008J0D01*
G01*
X02808D02*
G03*
X02808Y04115I-00008J0D01*
G01*
X02908D02*
G03*
X02908Y04115I-00008J0D01*
G01*
X03008D02*
G03*
X03008Y04115I-00008J0D01*
G01*
X03108D02*
G03*
X03108Y04115I-00008J0D01*
G01*
X01208Y04715D02*
G03*
X01208Y04715I-00008J0D01*
G01*
X01308D02*
G03*
X01308Y04715I-00008J0D01*
G01*
X01408D02*
G03*
X01408Y04715I-00008J0D01*
G01*
X01508D02*
G03*
X01508Y04715I-00008J0D01*
G01*
X01608D02*
G03*
X01608Y04715I-00008J0D01*
G01*
X01708D02*
G03*
X01708Y04715I-00008J0D01*
G01*
X01808D02*
G03*
X01808Y04715I-00008J0D01*
G01*
X01908D02*
G03*
X01908Y04715I-00008J0D01*
G01*
X02008D02*
G03*
X02008Y04715I-00008J0D01*
G01*
X02108D02*
G03*
X02108Y04715I-00008J0D01*
G01*
X02208D02*
G03*
X02208Y04715I-00008J0D01*
G01*
X02308D02*
G03*
X02308Y04715I-00008J0D01*
G01*
X02408D02*
G03*
X02408Y04715I-00008J0D01*
G01*
X02508D02*
G03*
X02508Y04715I-00008J0D01*
G01*
X02608D02*
G03*
X02608Y04715I-00008J0D01*
G01*
X02708D02*
G03*
X02708Y04715I-00008J0D01*
G01*
X02808D02*
G03*
X02808Y04715I-00008J0D01*
G01*
X02908D02*
G03*
X02908Y04715I-00008J0D01*
G01*
X03008D02*
G03*
X03008Y04715I-00008J0D01*
G01*
X03108D02*
G03*
X03108Y04715I-00008J0D01*
G01*
M02*
