G04*
G04 #@! TF.GenerationSoftware,Altium Limited,Altium Designer,21.5.1 (32)*
G04*
G04 Layer_Color=255*
%FSTAX25Y25*%
%MOIN*%
G70*
G04*
G04 #@! TF.SameCoordinates,0BFE2CC6-8836-44AC-A470-928A03FDA669*
G04*
G04*
G04 #@! TF.FilePolarity,Positive*
G04*
G01*
G75*
%ADD15R,0.06811X0.03819*%
%ADD16R,0.05906X0.03543*%
%ADD17R,0.07165X0.04567*%
%ADD32C,0.09000*%
%ADD33C,0.07874*%
%ADD34R,0.06496X0.06496*%
%ADD35C,0.06496*%
%ADD36O,0.23622X0.11811*%
%ADD37C,0.08858*%
%ADD38C,0.15700*%
%ADD39C,0.05906*%
%ADD40R,0.05906X0.05906*%
%ADD41C,0.05200*%
D15*
X02395Y03625D02*
D03*
Y0374154D02*
D03*
X02535Y0362346D02*
D03*
Y0374D02*
D03*
X0226Y03625D02*
D03*
Y0374154D02*
D03*
D16*
X0306661Y0115804D02*
D03*
Y0128796D02*
D03*
X0287369Y0115804D02*
D03*
Y0128796D02*
D03*
X0211769D02*
D03*
Y0115804D02*
D03*
X0231061Y0128796D02*
D03*
Y0115804D02*
D03*
X0155461D02*
D03*
Y0128796D02*
D03*
X0136169Y0115804D02*
D03*
Y0128796D02*
D03*
X0287369Y0204396D02*
D03*
Y0191404D02*
D03*
X0306661Y0204396D02*
D03*
Y0191404D02*
D03*
X0231061D02*
D03*
Y0204396D02*
D03*
X0211769Y0191404D02*
D03*
Y0204396D02*
D03*
X0136169D02*
D03*
Y0191404D02*
D03*
X0155461Y0204396D02*
D03*
Y0191404D02*
D03*
X0306661Y0267004D02*
D03*
Y0279996D02*
D03*
X0287369Y0267004D02*
D03*
Y0279996D02*
D03*
X0211769D02*
D03*
Y0267004D02*
D03*
X0231061Y0279996D02*
D03*
Y0267004D02*
D03*
X0155461D02*
D03*
Y0279996D02*
D03*
X0136169Y0267004D02*
D03*
Y0279996D02*
D03*
D17*
X03345Y0116316D02*
D03*
Y012793D02*
D03*
X02595Y0116316D02*
D03*
Y012793D02*
D03*
X01835Y0116316D02*
D03*
Y012793D02*
D03*
X03345Y0191916D02*
D03*
Y020353D02*
D03*
X02595Y0191916D02*
D03*
Y020353D02*
D03*
X01835Y0191916D02*
D03*
Y020353D02*
D03*
X03345Y0267516D02*
D03*
Y027913D02*
D03*
X02595Y0267516D02*
D03*
Y027913D02*
D03*
X01835Y0267516D02*
D03*
Y027913D02*
D03*
D32*
X0320279Y0107267D02*
D03*
X0334278Y0487D02*
D03*
X0215692Y0352721D02*
D03*
X0125778D02*
D03*
X0109Y0107267D02*
D03*
D33*
X012Y04115D02*
D03*
X013D02*
D03*
X014D02*
D03*
X015D02*
D03*
X016D02*
D03*
X017D02*
D03*
X018D02*
D03*
X019D02*
D03*
X02D02*
D03*
X021D02*
D03*
X022D02*
D03*
X023D02*
D03*
X024D02*
D03*
X025D02*
D03*
X026D02*
D03*
X027D02*
D03*
X028D02*
D03*
X029D02*
D03*
X03D02*
D03*
X031D02*
D03*
X012Y04715D02*
D03*
X013D02*
D03*
X014D02*
D03*
X015D02*
D03*
X016D02*
D03*
X017D02*
D03*
X018D02*
D03*
X019D02*
D03*
X02D02*
D03*
X021D02*
D03*
X022D02*
D03*
X023D02*
D03*
X024D02*
D03*
X025D02*
D03*
X026D02*
D03*
X027D02*
D03*
X028D02*
D03*
X029D02*
D03*
X03D02*
D03*
X031D02*
D03*
D34*
X0325559Y0373343D02*
D03*
D35*
Y0353657D02*
D03*
X0268472Y0373343D02*
D03*
Y03635D02*
D03*
Y0353657D02*
D03*
D36*
X0298Y0385941D02*
D03*
Y0341059D02*
D03*
D37*
X0282015Y01563D02*
D03*
X0306897Y01663D02*
D03*
X0231297D02*
D03*
X0206415Y01563D02*
D03*
X0130815D02*
D03*
X0155697Y01663D02*
D03*
X0306897Y02419D02*
D03*
X0282015Y02319D02*
D03*
X0206415D02*
D03*
X0231297Y02419D02*
D03*
X0155697D02*
D03*
X0130815Y02319D02*
D03*
X0282015Y03075D02*
D03*
X0306897Y03175D02*
D03*
X0231297D02*
D03*
X0206415Y03075D02*
D03*
X0130815D02*
D03*
X0155697Y03175D02*
D03*
D38*
X0297015Y01463D02*
D03*
X0221415D02*
D03*
X0145815D02*
D03*
X0297015Y02219D02*
D03*
X0221415D02*
D03*
X0145815D02*
D03*
X0297015Y02975D02*
D03*
X0221415D02*
D03*
X0145815D02*
D03*
D39*
X014Y03885D02*
D03*
X015D02*
D03*
X016D02*
D03*
X017D02*
D03*
X019D02*
D03*
X018D02*
D03*
D40*
X02D02*
D03*
D41*
X02345Y03435D02*
D03*
X02445D02*
D03*
M02*
